<svg xmlns="http://www.w3.org/2000/svg" xmlns:xlink="http://www.w3.org/1999/xlink" width="500" zoomAndPan="magnify" viewBox="0 0 375 374.999991" height="500" preserveAspectRatio="xMidYMid meet" version="1.0"><rect x="-37.5" width="450" fill="#ffffff" y="-37.499999" height="449.999989" fill-opacity="1"/><rect x="-37.5" width="450" fill="#000000" y="-37.499999" height="449.999989" fill-opacity="1"/><path fill="#ffffff" d="M 154.390625 223.394531 C 154.308594 207.234375 154.167969 180.800781 154.105469 164.660156 C 154.023438 148.5 166.109375 141.835938 179.90625 149.84375 C 193.722656 157.855469 216.730469 170.957031 230.546875 178.945312 C 244.34375 186.957031 244.628906 200.160156 230.914062 208.3125 C 217.179688 216.464844 193.988281 229.792969 180.25 237.945312 C 166.535156 246.097656 154.472656 239.554688 154.390625 223.394531 Z M 154.390625 223.394531 " fill-opacity="1" fill-rule="nonzero"/><path fill="#7ed957" d="M 125.328125 181.964844 C 126.265625 125.105469 140.898438 98.488281 159.140625 85.628906 C 169.328125 79.863281 177.703125 78.78125 185.53125 78.597656 C 191.296875 78.457031 196.839844 78.945312 202.179688 79.902344 C 219.136719 82.0625 256.390625 93.273438 291.847656 126 C 272.996094 77.867188 215.546875 44.992188 162.910156 52.65625 C 122.457031 58.527344 87.34375 91.683594 83.9375 164.007812 C 81.023438 226.042969 108.535156 265.4375 129.609375 260.035156 C 127.347656 230.304688 124.984375 202.21875 125.328125 181.964844 Z M 125.328125 181.964844 " fill-opacity="1" fill-rule="nonzero"/><path fill="#f10000" d="M 205.257812 251.703125 C 155.675781 279.539062 125.308594 280.335938 105.011719 271.0625 C 94.902344 265.152344 89.726562 258.488281 85.628906 251.824219 C 82.59375 246.914062 80.230469 241.898438 78.375 236.785156 C 71.691406 221.050781 62.601562 183.226562 72.996094 136.109375 C 40.917969 176.644531 41.488281 242.835938 74.625 284.429688 C 100.101562 316.386719 146.421875 330 210.597656 296.496094 C 265.660156 267.738281 285.816406 224.128906 270.511719 208.660156 C 246.015625 225.59375 222.945312 241.777344 205.257812 251.703125 Z M 205.257812 251.703125 " fill-opacity="1" fill-rule="nonzero"/><path fill="#0062e6" d="M 226.144531 147.828125 C 274.710938 177.398438 290.300781 203.464844 292.15625 225.71875 C 291.972656 237.4375 288.667969 245.199219 284.898438 252.046875 C 282.109375 257.101562 278.886719 261.625 275.363281 265.761719 C 264.929688 279.292969 236.417969 305.769531 190.238281 319.789062 C 241.289062 327.859375 298.695312 294.945312 318.707031 245.648438 C 334.074219 207.785156 323.234375 160.726562 262.5625 121.210938 C 210.515625 87.320312 162.625 91.132812 156.632812 112.042969 C 183.410156 125.125 208.824219 137.292969 226.144531 147.828125 Z M 226.144531 147.828125 " fill-opacity="1" fill-rule="nonzero"/></svg>